<?xml version="1.0" standalone="no"?>
<!DOCTYPE svg PUBLIC "-//W3C//DTD SVG 20010904//EN"
 "http://www.w3.org/TR/2001/REC-SVG-20010904/DTD/svg10.dtd">
<svg version="1.0" xmlns="http://www.w3.org/2000/svg"
 width="300.000000pt" height="193.000000pt" viewBox="0 0 300.000000 193.000000"
 preserveAspectRatio="xMidYMid meet">
<metadata>
Created by potrace 1.10, written by Peter Selinger 2001-2011
</metadata>
<g transform="translate(0.000000,193.000000) scale(0.100000,-0.100000)"
fill="#000000" stroke="none">
<path d="M469 1716 c-166 -58 -281 -191 -330 -383 -23 -91 -24 -146 -4 -248
33 -173 137 -314 283 -383 68 -32 87 -37 173 -40 98 -4 107 -2 237 55 10 4 13
-3 10 -27 l-3 -33 88 -4 87 -4 0 221 0 220 -53 0 c-30 0 -109 3 -175 7 l-122
6 0 -26 0 -27 90 0 90 0 0 -145 0 -145 -42 -22 c-64 -33 -185 -32 -253 4 -99
51 -183 162 -220 291 -20 71 -23 231 -5 307 61 260 288 409 482 316 60 -29
146 -112 170 -166 16 -38 28 -38 28 -1 0 53 -98 154 -200 206 -97 50 -226 58
-331 21z m-3 -68 c-45 -40 -117 -134 -144 -188 -81 -162 -62 -454 40 -594 46
-64 118 -136 135 -136 12 0 14 -3 7 -10 -7 -7 -20 -6 -40 5 -16 8 -33 15 -37
15 -17 0 -104 64 -140 104 -127 139 -164 403 -82 574 14 29 25 54 25 57 0 9
35 50 91 105 70 68 85 80 101 80 7 1 24 7 38 15 49 28 53 14 6 -27z m491 -596
c14 -9 15 -25 13 -189 -1 -68 1 -127 4 -132 9 -14 -27 -39 -59 -39 -48 0 -57
14 -49 72 4 28 7 106 6 174 l-1 122 37 0 c20 0 42 -4 49 -8z"/>
<path d="M1553 1081 c-122 -31 -190 -164 -149 -288 65 -197 356 -197 422 -1
33 99 -7 214 -91 263 -48 29 -128 40 -182 26z m-47 -86 c-45 -41 -49 -43 -35
-12 9 19 38 39 68 46 3 1 -12 -15 -33 -34z m254 -10 c35 -46 51 -133 30 -165
-7 -11 -10 -3 -10 29 0 61 -20 120 -46 138 -12 8 -25 21 -28 28 -4 12 -2 13
17 2 12 -6 29 -21 37 -32z m-80 0 c72 -37 85 -148 26 -213 -32 -34 -38 -37
-91 -37 -53 0 -59 3 -91 37 -33 36 -39 57 -35 121 4 84 109 134 191 92z m-220
-190 c0 -19 81 -96 93 -88 5 3 7 1 3 -5 -14 -24 -102 43 -109 83 -1 11 -7 27
-12 35 -8 13 -7 13 8 1 9 -7 17 -19 17 -26z m297 -51 c-11 -13 -27 -24 -34
-24 -8 0 -11 -4 -8 -10 3 -5 1 -10 -4 -10 -17 0 -13 9 21 50 19 22 36 34 39
28 4 -6 -3 -21 -14 -34z"/>
<path d="M1110 865 l0 -215 110 0 110 0 0 44 0 43 -70 -5 -71 -5 3 177 3 176
-42 0 -43 0 0 -215z m73 -145 l29 -30 -30 0 c-31 0 -51 27 -37 50 8 13 6 14
38 -20z"/>
<path d="M1888 1043 c10 -21 52 -120 91 -220 40 -101 77 -183 81 -183 6 0 45
91 74 174 10 28 19 13 57 -87 18 -48 37 -86 42 -84 5 1 49 101 97 220 l88 218
-51 -3 -51 -3 -40 -108 c-22 -59 -43 -104 -46 -100 -4 5 -22 51 -40 103 -18
52 -36 99 -40 103 -7 7 -48 -92 -73 -175 -6 -21 -14 -38 -17 -38 -3 0 -14 21
-23 48 -9 26 -26 75 -39 110 l-23 62 -53 0 -52 0 18 -37z m440 -79 c-12 -27
-21 -52 -20 -56 1 -5 -2 -8 -8 -8 -13 0 -13 1 4 36 8 16 20 42 26 58 6 16 13
27 15 24 3 -3 -5 -27 -17 -54z m-148 -61 c0 -9 12 -26 26 -38 24 -20 29 -21
53 -9 14 8 27 10 29 6 5 -15 -49 -122 -59 -117 -5 4 -9 13 -9 21 0 8 -4 14
-10 14 -5 0 -10 6 -10 13 0 8 -11 24 -25 37 -33 31 -50 21 -85 -43 -14 -26
-28 -47 -31 -47 -7 0 -45 83 -55 120 -4 14 -11 28 -16 31 -6 4 -8 15 -5 25 3
16 6 14 16 -11 7 -16 23 -38 37 -48 23 -18 27 -18 43 -3 10 9 29 37 42 62 l23
46 18 -22 c10 -12 18 -29 18 -37z"/>
<path d="M2460 1040 l0 -40 65 0 c36 0 65 -2 65 -5 0 -2 -34 -79 -75 -172 -41
-92 -75 -170 -75 -173 0 -3 65 -4 145 -2 l145 3 0 45 0 45 -85 -7 c-81 -6 -98
-2 -76 21 5 6 37 73 71 150 35 77 67 144 71 149 20 22 3 26 -121 26 l-130 0 0
-40z m195 -11 c-4 -22 -28 -59 -37 -59 -4 0 -5 6 -2 13 2 7 -4 21 -15 31 -26
24 -21 31 22 31 27 0 34 -4 32 -16z m-115 -277 c0 -10 9 -26 21 -35 26 -22 19
-30 -26 -32 l-34 -2 14 35 c8 19 12 38 9 43 -3 5 0 9 5 9 6 0 11 -8 11 -18z"/>
<path d="M1050 622 c-22 -7 -60 -44 -60 -58 0 -6 7 -17 15 -24 28 -23 95 19
95 59 0 14 -32 29 -50 23z"/>
<path d="M2220 615 c-14 -7 -33 -16 -44 -19 -13 -5 -16 -11 -10 -24 14 -28 13
-184 -1 -214 -7 -15 -10 -29 -7 -32 3 -3 32 -6 64 -6 53 0 73 10 48 25 -6 4
-10 62 -10 140 0 74 -3 136 -8 139 -4 2 -19 -2 -32 -9z"/>
<path d="M1201 599 c-30 -12 -50 -38 -51 -65 0 -12 -7 -24 -15 -28 -8 -3 -15
-10 -15 -16 0 -5 7 -10 15 -10 12 0 15 -14 15 -64 0 -36 -4 -68 -10 -71 -25
-15 -5 -25 51 -25 59 0 61 1 54 23 -4 12 -10 48 -12 80 -4 53 -3 57 16 57 28
0 27 18 -3 29 -23 9 -36 29 -36 57 0 23 30 16 42 -11 15 -32 26 -32 39 2 8 22
7 30 -7 40 -21 15 -49 16 -83 2z"/>
<path d="M765 581 c-3 -5 -1 -12 5 -16 13 -8 13 -212 0 -220 -30 -18 -2 -25
91 -23 l102 3 12 47 c18 72 -1 80 -40 18 -16 -25 -33 -40 -45 -40 -19 0 -20 7
-20 104 0 60 4 107 10 111 22 14 -4 25 -55 25 -30 0 -56 -4 -60 -9z"/>
<path d="M1831 572 c-6 -11 -24 -25 -41 -32 -22 -9 -28 -16 -21 -23 6 -6 11
-40 11 -76 0 -83 15 -115 56 -119 38 -4 63 20 44 43 -6 8 -13 41 -15 75 -3 48
0 62 13 70 15 8 15 11 2 19 -8 6 -15 20 -15 32 0 29 -21 36 -34 11z"/>
<path d="M1065 525 c-11 -8 -30 -15 -42 -15 -25 0 -39 -15 -23 -25 5 -3 10
-35 10 -70 0 -35 -5 -67 -10 -70 -22 -13 3 -25 54 -25 l52 0 -4 98 c-5 115
-10 128 -37 107z"/>
<path d="M1374 526 c-42 -19 -64 -53 -64 -99 0 -57 52 -107 109 -107 60 0 111
30 111 66 0 11 -34 2 -59 -17 -31 -23 -66 -22 -66 1 0 9 14 17 37 21 51 8 78
34 78 75 0 24 -7 38 -24 49 -34 23 -86 27 -122 11z m71 -45 c7 -33 -10 -74
-28 -68 -13 4 -22 60 -13 83 9 24 34 15 41 -15z"/>
<path d="M1593 525 c-64 -28 -50 -102 24 -125 64 -21 86 -50 37 -50 -14 0 -40
11 -56 25 -32 27 -48 25 -48 -5 0 -25 48 -50 95 -50 72 0 122 50 97 97 -6 10
-34 27 -64 38 -54 21 -70 48 -33 53 12 2 31 -8 45 -23 26 -27 46 -32 53 -12 8
22 -13 46 -51 57 -47 13 -60 12 -99 -5z"/>
<path d="M1910 528 c0 -6 8 -22 18 -36 29 -41 74 -166 70 -192 -4 -33 -26 -36
-38 -5 -13 34 -53 32 -58 -3 -5 -33 15 -52 55 -52 49 0 83 40 118 137 15 43
38 95 51 116 14 20 23 37 22 38 -2 1 -19 3 -39 4 l-35 4 0 -50 c0 -45 -16 -81
-30 -67 -3 3 -7 30 -8 59 l-3 53 -61 2 c-34 1 -62 -3 -62 -8z"/>
<path d="M2350 522 c-47 -23 -70 -84 -50 -132 28 -68 132 -94 186 -47 19 16
25 29 21 41 -6 16 -10 15 -38 -8 -34 -29 -61 -33 -78 -13 -14 17 -4 27 26 27
96 0 123 100 38 136 -45 18 -63 18 -105 -4z m74 -28 c11 -28 6 -61 -10 -75
-13 -10 -17 -10 -25 2 -18 29 -7 89 16 89 7 0 16 -7 19 -16z m-77 -41 c-4 -3
-1 -16 7 -28 12 -19 12 -21 -5 -22 -14 -1 -19 5 -19 21 0 22 7 36 18 36 3 0 2
-3 -1 -7z"/>
</g>
</svg>
